# xmcd
#
# Track frame offsets:
#	150
#	14775
#	33900
#	43782
#	55425
#	72075
#	87075
#	93597
#	104025
#	127125
#	137565
#	145950
#	163800
#	184050
#	189422
#	195600
#	200250
#	218850
#	237375
#	251250
#	268950
#
# Disc length: 3856 seconds
#
# Revision: 1
# Processed by: cddbd v1.5.2PL0 Copyright (c) Steve Scherf et al.
# Submitted via: audiograbber 1.83.01
#
DISCID=440f0e15
DTITLE=101 дглотийа [2004] BOX 05 - вояеутийа паяадодиайа 5
DYEAR=2004
DGENRE=
TTITLE0=сатгс аяйадиас том пкатамо
TTITLE1=поукайи немо
TTITLE2=саяамта баяйес сто циако
TTITLE3=ти ма се йамы цакамг
TTITLE4=кака то агдоми
TTITLE5=ыкава л ' то ламтгки соу
TTITLE6=апоье дем епкациаса
TTITLE7=нупмаеи г йояг то пяыи
TTITLE8=йобы лиа йкаяа
TTITLE9=ейеи ьгка ста лпакйомайиа
TTITLE10=дуо лауяа латиа ацапы
TTITLE11=паяалеяате куцеяес
TTITLE12=суммежиасе о паямассос
TTITLE13=лес ст' алпеки
TTITLE14=жояас йаимоуяиа жояесиа
TTITLE15=стауяоука
TTITLE16=басикы
TTITLE17=пяытолациа
TTITLE18=йоййима веикг жикгса
TTITLE19=циыяцоука
TTITLE20=хеомитса
EXTD=
EXTT0=
EXTT1=
EXTT2=
EXTT3=
EXTT4=
EXTT5=
EXTT6=
EXTT7=
EXTT8=
EXTT9=
EXTT10=
EXTT11=
EXTT12=
EXTT13=
EXTT14=
EXTT15=
EXTT16=
EXTT17=
EXTT18=
EXTT19=
EXTT20=
PLAYORDER=
